<?xml version="1.0" encoding="UTF-8" standalone="no"?>
<!DOCTYPE svg PUBLIC "-//W3C//DTD SVG 1.1//EN"
 "http://www.w3.org/Graphics/SVG/1.1/DTD/svg11.dtd">
<!-- Generated by graphviz version 2.40.1 (20161225.0304)
 -->
<!-- Title: dependencies Pages: 1 -->
<svg width="581pt" height="284pt"
 viewBox="0.00 0.00 581.00 284.00" xmlns="http://www.w3.org/2000/svg" xmlns:xlink="http://www.w3.org/1999/xlink">
<g id="graph0" class="graph" transform="scale(1 1) rotate(0) translate(4 280)">
<title>dependencies</title>
<polygon fill="#ffffff" stroke="transparent" points="-4,4 -4,-280 577,-280 577,4 -4,4"/>
<text text-anchor="start" x="265.5091" y="-42.4" font-family="sans-serif" font-weight="bold" font-size="14.00" fill="#000000">Legend</text>
<polygon fill="#ffffb3" stroke="transparent" points="52.5,-10 52.5,-30 72.5,-30 72.5,-10 52.5,-10"/>
<text text-anchor="start" x="76.129" y="-15.4" font-family="sans-serif" font-size="14.00" fill="#000000"> &#160;Declarations</text>
<polygon fill="#8dd3c7" stroke="transparent" points="165.5,-10 165.5,-30 185.5,-30 185.5,-10 165.5,-10"/>
<text text-anchor="start" x="189.2251" y="-15.4" font-family="sans-serif" font-size="14.00" fill="#000000"> &#160;Module</text>
<polygon fill="#80b1d3" stroke="transparent" points="251.5,-10 251.5,-30 271.5,-30 271.5,-10 251.5,-10"/>
<text text-anchor="start" x="275.2812" y="-15.4" font-family="sans-serif" font-size="14.00" fill="#000000"> &#160;Bootstrap</text>
<polygon fill="#fdb462" stroke="transparent" points="348.5,-10 348.5,-30 368.5,-30 368.5,-10 348.5,-10"/>
<text text-anchor="start" x="372.1732" y="-15.4" font-family="sans-serif" font-size="14.00" fill="#000000"> &#160;Providers</text>
<polygon fill="#fb8072" stroke="transparent" points="444.5,-10 444.5,-30 464.5,-30 464.5,-10 444.5,-10"/>
<text text-anchor="start" x="468.2258" y="-15.4" font-family="sans-serif" font-size="14.00" fill="#000000"> &#160;Exports</text>
<g id="clust1" class="cluster">
<title>cluster_CoreModule</title>
<polygon fill="none" stroke="#000000" stroke-dasharray="1,5" points="8,-70 8,-268 565,-268 565,-70 8,-70"/>
</g>
<g id="clust2" class="cluster">
<title>cluster_CoreModule_declarations</title>
<polygon fill="none" stroke="#000000" points="138,-78 138,-130 557,-130 557,-78 138,-78"/>
</g>
<g id="clust6" class="cluster">
<title>cluster_CoreModule_imports</title>
<polygon fill="none" stroke="#000000" points="16,-78 16,-130 130,-130 130,-78 16,-78"/>
</g>
<g id="clust7" class="cluster">
<title>cluster_CoreModule_exports</title>
<polygon fill="none" stroke="#000000" points="191,-208 191,-260 347,-260 347,-208 191,-208"/>
</g>
<!-- BsNavbarComponent -->
<g id="node1" class="node">
<title>BsNavbarComponent</title>
<polygon fill="#ffffb3" stroke="#000000" points="548.8104,-122 411.1896,-122 411.1896,-86 548.8104,-86 548.8104,-122"/>
<text text-anchor="middle" x="480" y="-99.8" font-family="Times,serif" font-size="14.00" fill="#000000">BsNavbarComponent</text>
</g>
<!-- CoreModule -->
<g id="node4" class="node">
<title>CoreModule</title>
<polygon fill="#8dd3c7" stroke="#000000" points="312.2619,-187 309.2619,-191 288.2619,-191 285.2619,-187 225.7381,-187 225.7381,-151 312.2619,-151 312.2619,-187"/>
<text text-anchor="middle" x="269" y="-164.8" font-family="Times,serif" font-size="14.00" fill="#000000">CoreModule</text>
</g>
<!-- BsNavbarComponent&#45;&gt;CoreModule -->
<g id="edge1" class="edge">
<title>BsNavbarComponent&#45;&gt;CoreModule</title>
<path fill="none" stroke="#000000" d="M480,-122.1061C480,-141.3391 480,-169 480,-169 480,-169 322.4635,-169 322.4635,-169"/>
<polygon fill="#000000" stroke="#000000" points="322.4635,-165.5001 312.4635,-169 322.4635,-172.5001 322.4635,-165.5001"/>
</g>
<!-- HomeComponent -->
<g id="node2" class="node">
<title>HomeComponent</title>
<polygon fill="#ffffb3" stroke="#000000" points="393.5451,-122 278.4549,-122 278.4549,-86 393.5451,-86 393.5451,-122"/>
<text text-anchor="middle" x="336" y="-99.8" font-family="Times,serif" font-size="14.00" fill="#000000">HomeComponent</text>
</g>
<!-- HomeComponent&#45;&gt;CoreModule -->
<g id="edge2" class="edge">
<title>HomeComponent&#45;&gt;CoreModule</title>
<path fill="none" stroke="#000000" d="M295.3044,-122.1061C295.3044,-122.1061 295.3044,-140.991 295.3044,-140.991"/>
<polygon fill="#000000" stroke="#000000" points="291.8044,-140.9909 295.3044,-150.991 298.8044,-140.991 291.8044,-140.9909"/>
</g>
<!-- LoginComponent -->
<g id="node3" class="node">
<title>LoginComponent</title>
<polygon fill="#ffffb3" stroke="#000000" points="260.2758,-122 145.7242,-122 145.7242,-86 260.2758,-86 260.2758,-122"/>
<text text-anchor="middle" x="203" y="-99.8" font-family="Times,serif" font-size="14.00" fill="#000000">LoginComponent</text>
</g>
<!-- LoginComponent&#45;&gt;CoreModule -->
<g id="edge3" class="edge">
<title>LoginComponent&#45;&gt;CoreModule</title>
<path fill="none" stroke="#000000" d="M243.0035,-122.1061C243.0035,-122.1061 243.0035,-140.991 243.0035,-140.991"/>
<polygon fill="#000000" stroke="#000000" points="239.5036,-140.9909 243.0035,-150.991 246.5036,-140.991 239.5036,-140.9909"/>
</g>
<!-- BsNavbarComponent  -->
<g id="node6" class="node">
<title>BsNavbarComponent </title>
<polygon fill="#fb8072" stroke="#000000" points="339.3101,-252 198.6899,-252 198.6899,-216 339.3101,-216 339.3101,-252"/>
<text text-anchor="middle" x="269" y="-229.8" font-family="Times,serif" font-size="14.00" fill="#000000">BsNavbarComponent </text>
</g>
<!-- CoreModule&#45;&gt;BsNavbarComponent  -->
<g id="edge5" class="edge">
<title>CoreModule&#45;&gt;BsNavbarComponent </title>
<path fill="none" stroke="#000000" stroke-dasharray="5,2" d="M269,-187.1061C269,-187.1061 269,-205.991 269,-205.991"/>
<polygon fill="#000000" stroke="#000000" points="265.5001,-205.9909 269,-215.991 272.5001,-205.991 265.5001,-205.9909"/>
</g>
<!-- SharedModule -->
<g id="node5" class="node">
<title>SharedModule</title>
<polygon fill="#8dd3c7" stroke="#000000" points="122.4231,-122 119.4231,-126 98.4231,-126 95.4231,-122 23.5769,-122 23.5769,-86 122.4231,-86 122.4231,-122"/>
<text text-anchor="middle" x="73" y="-99.8" font-family="Times,serif" font-size="14.00" fill="#000000">SharedModule</text>
</g>
<!-- SharedModule&#45;&gt;CoreModule -->
<g id="edge4" class="edge">
<title>SharedModule&#45;&gt;CoreModule</title>
<path fill="none" stroke="#000000" d="M73,-122.1061C73,-141.3391 73,-169 73,-169 73,-169 215.5012,-169 215.5012,-169"/>
<polygon fill="#000000" stroke="#000000" points="215.5013,-172.5001 225.5012,-169 215.5012,-165.5001 215.5013,-172.5001"/>
</g>
</g>
</svg>
