<?xml version="1.0" encoding="UTF-8" standalone="no"?>
<!DOCTYPE svg PUBLIC "-//W3C//DTD SVG 1.1//EN"
 "http://www.w3.org/Graphics/SVG/1.1/DTD/svg11.dtd">
<!-- Generated by graphviz version 2.40.1 (20161225.0304)
 -->
<!-- Title: dependencies Pages: 1 -->
<svg width="1939pt" height="284pt"
 viewBox="0.00 0.00 1939.00 284.00" xmlns="http://www.w3.org/2000/svg" xmlns:xlink="http://www.w3.org/1999/xlink">
<g id="graph0" class="graph" transform="scale(1 1) rotate(0) translate(4 280)">
<title>dependencies</title>
<polygon fill="#ffffff" stroke="transparent" points="-4,4 -4,-280 1935,-280 1935,4 -4,4"/>
<text text-anchor="start" x="944.5091" y="-42.4" font-family="sans-serif" font-weight="bold" font-size="14.00" fill="#000000">Legend</text>
<polygon fill="#ffffb3" stroke="transparent" points="731.5,-10 731.5,-30 751.5,-30 751.5,-10 731.5,-10"/>
<text text-anchor="start" x="755.129" y="-15.4" font-family="sans-serif" font-size="14.00" fill="#000000"> &#160;Declarations</text>
<polygon fill="#8dd3c7" stroke="transparent" points="844.5,-10 844.5,-30 864.5,-30 864.5,-10 844.5,-10"/>
<text text-anchor="start" x="868.2251" y="-15.4" font-family="sans-serif" font-size="14.00" fill="#000000"> &#160;Module</text>
<polygon fill="#80b1d3" stroke="transparent" points="930.5,-10 930.5,-30 950.5,-30 950.5,-10 930.5,-10"/>
<text text-anchor="start" x="954.2812" y="-15.4" font-family="sans-serif" font-size="14.00" fill="#000000"> &#160;Bootstrap</text>
<polygon fill="#fdb462" stroke="transparent" points="1027.5,-10 1027.5,-30 1047.5,-30 1047.5,-10 1027.5,-10"/>
<text text-anchor="start" x="1051.1732" y="-15.4" font-family="sans-serif" font-size="14.00" fill="#000000"> &#160;Providers</text>
<polygon fill="#fb8072" stroke="transparent" points="1123.5,-10 1123.5,-30 1143.5,-30 1143.5,-10 1123.5,-10"/>
<text text-anchor="start" x="1147.2258" y="-15.4" font-family="sans-serif" font-size="14.00" fill="#000000"> &#160;Exports</text>
<g id="clust1" class="cluster">
<title>cluster_SharedModule</title>
<polygon fill="none" stroke="#000000" stroke-dasharray="1,5" points="8,-70 8,-268 1923,-268 1923,-70 8,-70"/>
</g>
<g id="clust2" class="cluster">
<title>cluster_SharedModule_declarations</title>
<polygon fill="none" stroke="#000000" points="1347,-78 1347,-130 1915,-130 1915,-78 1347,-78"/>
</g>
<g id="clust7" class="cluster">
<title>cluster_SharedModule_exports</title>
<polygon fill="none" stroke="#000000" points="785,-208 785,-260 1152,-260 1152,-208 785,-208"/>
</g>
<g id="clust9" class="cluster">
<title>cluster_SharedModule_providers</title>
<polygon fill="none" stroke="#000000" points="16,-78 16,-130 1339,-130 1339,-78 16,-78"/>
</g>
<!-- ProductCardComponent -->
<g id="node1" class="node">
<title>ProductCardComponent</title>
<polygon fill="#ffffb3" stroke="#000000" points="1907.0926,-122 1754.9074,-122 1754.9074,-86 1907.0926,-86 1907.0926,-122"/>
<text text-anchor="middle" x="1831" y="-99.8" font-family="Times,serif" font-size="14.00" fill="#000000">ProductCardComponent</text>
</g>
<!-- SharedModule -->
<g id="node4" class="node">
<title>SharedModule</title>
<polygon fill="#8dd3c7" stroke="#000000" points="1023.4231,-187 1020.4231,-191 999.4231,-191 996.4231,-187 924.5769,-187 924.5769,-151 1023.4231,-151 1023.4231,-187"/>
<text text-anchor="middle" x="974" y="-164.8" font-family="Times,serif" font-size="14.00" fill="#000000">SharedModule</text>
</g>
<!-- ProductCardComponent&#45;&gt;SharedModule -->
<g id="edge1" class="edge">
<title>ProductCardComponent&#45;&gt;SharedModule</title>
<path fill="none" stroke="#000000" d="M1831,-122.2479C1831,-145.0179 1831,-181 1831,-181 1831,-181 1033.4667,-181 1033.4667,-181"/>
<polygon fill="#000000" stroke="#000000" points="1033.4668,-177.5001 1023.4667,-181 1033.4667,-184.5001 1033.4668,-177.5001"/>
</g>
<!-- ProductDescriptionComponent -->
<g id="node2" class="node">
<title>ProductDescriptionComponent</title>
<polygon fill="#ffffb3" stroke="#000000" points="1737.1937,-122 1546.8063,-122 1546.8063,-86 1737.1937,-86 1737.1937,-122"/>
<text text-anchor="middle" x="1642" y="-99.8" font-family="Times,serif" font-size="14.00" fill="#000000">ProductDescriptionComponent</text>
</g>
<!-- ProductDescriptionComponent&#45;&gt;SharedModule -->
<g id="edge2" class="edge">
<title>ProductDescriptionComponent&#45;&gt;SharedModule</title>
<path fill="none" stroke="#000000" d="M1642,-122.2843C1642,-143.3211 1642,-175 1642,-175 1642,-175 1033.3909,-175 1033.3909,-175"/>
<polygon fill="#000000" stroke="#000000" points="1033.3909,-171.5001 1023.3909,-175 1033.3909,-178.5001 1033.3909,-171.5001"/>
</g>
<!-- ProductQuantityComponent -->
<g id="node3" class="node">
<title>ProductQuantityComponent</title>
<polygon fill="#ffffb3" stroke="#000000" points="1528.8738,-122 1355.1262,-122 1355.1262,-86 1528.8738,-86 1528.8738,-122"/>
<text text-anchor="middle" x="1442" y="-99.8" font-family="Times,serif" font-size="14.00" fill="#000000">ProductQuantityComponent</text>
</g>
<!-- ProductQuantityComponent&#45;&gt;SharedModule -->
<g id="edge3" class="edge">
<title>ProductQuantityComponent&#45;&gt;SharedModule</title>
<path fill="none" stroke="#000000" d="M1442,-122.1061C1442,-141.3391 1442,-169 1442,-169 1442,-169 1033.6411,-169 1033.6411,-169"/>
<polygon fill="#000000" stroke="#000000" points="1033.6412,-165.5001 1023.6411,-169 1033.6411,-172.5001 1033.6412,-165.5001"/>
</g>
<!-- ProductCardComponent  -->
<g id="node5" class="node">
<title>ProductCardComponent </title>
<polygon fill="#fb8072" stroke="#000000" points="1143.5931,-252 988.4069,-252 988.4069,-216 1143.5931,-216 1143.5931,-252"/>
<text text-anchor="middle" x="1066" y="-229.8" font-family="Times,serif" font-size="14.00" fill="#000000">ProductCardComponent </text>
</g>
<!-- SharedModule&#45;&gt;ProductCardComponent  -->
<g id="edge4" class="edge">
<title>SharedModule&#45;&gt;ProductCardComponent </title>
<path fill="none" stroke="#000000" stroke-dasharray="5,2" d="M1005.7074,-187.1061C1005.7074,-187.1061 1005.7074,-205.991 1005.7074,-205.991"/>
<polygon fill="#000000" stroke="#000000" points="1002.2075,-205.9909 1005.7074,-215.991 1009.2075,-205.991 1002.2075,-205.9909"/>
</g>
<!-- ProductQuantityComponent  -->
<g id="node6" class="node">
<title>ProductQuantityComponent </title>
<polygon fill="#fb8072" stroke="#000000" points="970.8742,-252 793.1258,-252 793.1258,-216 970.8742,-216 970.8742,-252"/>
<text text-anchor="middle" x="882" y="-229.8" font-family="Times,serif" font-size="14.00" fill="#000000">ProductQuantityComponent </text>
</g>
<!-- SharedModule&#45;&gt;ProductQuantityComponent  -->
<g id="edge5" class="edge">
<title>SharedModule&#45;&gt;ProductQuantityComponent </title>
<path fill="none" stroke="#000000" stroke-dasharray="5,2" d="M947.7379,-187.1061C947.7379,-187.1061 947.7379,-205.991 947.7379,-205.991"/>
<polygon fill="#000000" stroke="#000000" points="944.238,-205.9909 947.7379,-215.991 951.238,-205.991 944.238,-205.9909"/>
</g>
<!-- AuthService -->
<g id="node7" class="node">
<title>AuthService</title>
<ellipse fill="#fdb462" stroke="#000000" cx="1272" cy="-104" rx="59.1083" ry="18"/>
<text text-anchor="middle" x="1272" y="-99.8" font-family="Times,serif" font-size="14.00" fill="#000000">AuthService</text>
</g>
<!-- AuthService&#45;&gt;SharedModule -->
<g id="edge6" class="edge">
<title>AuthService&#45;&gt;SharedModule</title>
<path fill="none" stroke="#000000" d="M1272,-122.0225C1272,-139.3734 1272,-163 1272,-163 1272,-163 1033.5432,-163 1033.5432,-163"/>
<polygon fill="#000000" stroke="#000000" points="1033.5432,-159.5001 1023.5432,-163 1033.5431,-166.5001 1033.5432,-159.5001"/>
</g>
<!-- BrandService -->
<g id="node8" class="node">
<title>BrandService</title>
<ellipse fill="#fdb462" stroke="#000000" cx="1131" cy="-104" rx="63.6813" ry="18"/>
<text text-anchor="middle" x="1131" y="-99.8" font-family="Times,serif" font-size="14.00" fill="#000000">BrandService</text>
</g>
<!-- BrandService&#45;&gt;SharedModule -->
<g id="edge7" class="edge">
<title>BrandService&#45;&gt;SharedModule</title>
<path fill="none" stroke="#000000" d="M1105.6029,-120.7695C1105.6029,-136.2969 1105.6029,-157 1105.6029,-157 1105.6029,-157 1033.3785,-157 1033.3785,-157"/>
<polygon fill="#000000" stroke="#000000" points="1033.3785,-153.5001 1023.3785,-157 1033.3784,-160.5001 1033.3785,-153.5001"/>
</g>
<!-- CategoryService -->
<g id="node9" class="node">
<title>CategoryService</title>
<ellipse fill="#fdb462" stroke="#000000" cx="974" cy="-104" rx="75.279" ry="18"/>
<text text-anchor="middle" x="974" y="-99.8" font-family="Times,serif" font-size="14.00" fill="#000000">CategoryService</text>
</g>
<!-- CategoryService&#45;&gt;SharedModule -->
<g id="edge8" class="edge">
<title>CategoryService&#45;&gt;SharedModule</title>
<path fill="none" stroke="#000000" d="M974,-122.1061C974,-122.1061 974,-140.991 974,-140.991"/>
<polygon fill="#000000" stroke="#000000" points="970.5001,-140.9909 974,-150.991 977.5001,-140.991 970.5001,-140.9909"/>
</g>
<!-- OrderDescriptionService -->
<g id="node10" class="node">
<title>OrderDescriptionService</title>
<ellipse fill="#fdb462" stroke="#000000" cx="773" cy="-104" rx="107.6192" ry="18"/>
<text text-anchor="middle" x="773" y="-99.8" font-family="Times,serif" font-size="14.00" fill="#000000">OrderDescriptionService</text>
</g>
<!-- OrderDescriptionService&#45;&gt;SharedModule -->
<g id="edge9" class="edge">
<title>OrderDescriptionService&#45;&gt;SharedModule</title>
<path fill="none" stroke="#000000" d="M836.9364,-118.4825C836.9364,-134.1748 836.9364,-157 836.9364,-157 836.9364,-157 914.5169,-157 914.5169,-157"/>
<polygon fill="#000000" stroke="#000000" points="914.5169,-160.5001 924.5169,-157 914.5168,-153.5001 914.5169,-160.5001"/>
</g>
<!-- OrderService -->
<g id="node11" class="node">
<title>OrderService</title>
<ellipse fill="#fdb462" stroke="#000000" cx="585" cy="-104" rx="62.516" ry="18"/>
<text text-anchor="middle" x="585" y="-99.8" font-family="Times,serif" font-size="14.00" fill="#000000">OrderService</text>
</g>
<!-- OrderService&#45;&gt;SharedModule -->
<g id="edge10" class="edge">
<title>OrderService&#45;&gt;SharedModule</title>
<path fill="none" stroke="#000000" d="M585,-122.0225C585,-139.3734 585,-163 585,-163 585,-163 914.7329,-163 914.7329,-163"/>
<polygon fill="#000000" stroke="#000000" points="914.7329,-166.5001 924.7329,-163 914.7328,-159.5001 914.7329,-166.5001"/>
</g>
<!-- ProductService -->
<g id="node12" class="node">
<title>ProductService</title>
<ellipse fill="#fdb462" stroke="#000000" cx="434" cy="-104" rx="70.0616" ry="18"/>
<text text-anchor="middle" x="434" y="-99.8" font-family="Times,serif" font-size="14.00" fill="#000000">ProductService</text>
</g>
<!-- ProductService&#45;&gt;SharedModule -->
<g id="edge11" class="edge">
<title>ProductService&#45;&gt;SharedModule</title>
<path fill="none" stroke="#000000" d="M434,-122.1061C434,-141.3391 434,-169 434,-169 434,-169 914.6471,-169 914.6471,-169"/>
<polygon fill="#000000" stroke="#000000" points="914.6471,-172.5001 924.6471,-169 914.647,-165.5001 914.6471,-172.5001"/>
</g>
<!-- ShoppingCartService -->
<g id="node13" class="node">
<title>ShoppingCartService</title>
<ellipse fill="#fdb462" stroke="#000000" cx="252" cy="-104" rx="93.7804" ry="18"/>
<text text-anchor="middle" x="252" y="-99.8" font-family="Times,serif" font-size="14.00" fill="#000000">ShoppingCartService</text>
</g>
<!-- ShoppingCartService&#45;&gt;SharedModule -->
<g id="edge12" class="edge">
<title>ShoppingCartService&#45;&gt;SharedModule</title>
<path fill="none" stroke="#000000" d="M252,-122.2843C252,-143.3211 252,-175 252,-175 252,-175 914.6582,-175 914.6582,-175"/>
<polygon fill="#000000" stroke="#000000" points="914.6582,-178.5001 924.6582,-175 914.6581,-171.5001 914.6582,-178.5001"/>
</g>
<!-- UserService -->
<g id="node14" class="node">
<title>UserService</title>
<ellipse fill="#fdb462" stroke="#000000" cx="82" cy="-104" rx="58.4415" ry="18"/>
<text text-anchor="middle" x="82" y="-99.8" font-family="Times,serif" font-size="14.00" fill="#000000">UserService</text>
</g>
<!-- UserService&#45;&gt;SharedModule -->
<g id="edge13" class="edge">
<title>UserService&#45;&gt;SharedModule</title>
<path fill="none" stroke="#000000" d="M82,-122.2479C82,-145.0179 82,-181 82,-181 82,-181 914.7716,-181 914.7716,-181"/>
<polygon fill="#000000" stroke="#000000" points="914.7717,-184.5001 924.7716,-181 914.7716,-177.5001 914.7717,-184.5001"/>
</g>
</g>
</svg>
