<?xml version="1.0" encoding="UTF-8" standalone="no"?>
<!DOCTYPE svg PUBLIC "-//W3C//DTD SVG 1.1//EN"
 "http://www.w3.org/Graphics/SVG/1.1/DTD/svg11.dtd">
<!-- Generated by graphviz version 2.40.1 (20161225.0304)
 -->
<!-- Title: dependencies Pages: 1 -->
<svg width="1560pt" height="211pt"
 viewBox="0.00 0.00 1560.00 211.00" xmlns="http://www.w3.org/2000/svg" xmlns:xlink="http://www.w3.org/1999/xlink">
<g id="graph0" class="graph" transform="scale(1 1) rotate(0) translate(4 207)">
<title>dependencies</title>
<polygon fill="#ffffff" stroke="transparent" points="-4,4 -4,-207 1556,-207 1556,4 -4,4"/>
<text text-anchor="start" x="755.0091" y="-42.4" font-family="sans-serif" font-weight="bold" font-size="14.00" fill="#000000">Legend</text>
<polygon fill="#ffffb3" stroke="transparent" points="542,-10 542,-30 562,-30 562,-10 542,-10"/>
<text text-anchor="start" x="565.629" y="-15.4" font-family="sans-serif" font-size="14.00" fill="#000000"> &#160;Declarations</text>
<polygon fill="#8dd3c7" stroke="transparent" points="655,-10 655,-30 675,-30 675,-10 655,-10"/>
<text text-anchor="start" x="678.7251" y="-15.4" font-family="sans-serif" font-size="14.00" fill="#000000"> &#160;Module</text>
<polygon fill="#80b1d3" stroke="transparent" points="741,-10 741,-30 761,-30 761,-10 741,-10"/>
<text text-anchor="start" x="764.7812" y="-15.4" font-family="sans-serif" font-size="14.00" fill="#000000"> &#160;Bootstrap</text>
<polygon fill="#fdb462" stroke="transparent" points="838,-10 838,-30 858,-30 858,-10 838,-10"/>
<text text-anchor="start" x="861.6732" y="-15.4" font-family="sans-serif" font-size="14.00" fill="#000000"> &#160;Providers</text>
<polygon fill="#fb8072" stroke="transparent" points="934,-10 934,-30 954,-30 954,-10 934,-10"/>
<text text-anchor="start" x="957.7258" y="-15.4" font-family="sans-serif" font-size="14.00" fill="#000000"> &#160;Exports</text>
<g id="clust1" class="cluster">
<title>cluster_ShoppingModule</title>
<polygon fill="none" stroke="#000000" stroke-dasharray="1,5" points="8,-70 8,-195 1544,-195 1544,-70 8,-70"/>
</g>
<g id="clust2" class="cluster">
<title>cluster_ShoppingModule_declarations</title>
<polygon fill="none" stroke="#000000" points="138,-78 138,-130 1536,-130 1536,-78 138,-78"/>
</g>
<g id="clust11" class="cluster">
<title>cluster_ShoppingModule_imports</title>
<polygon fill="none" stroke="#000000" points="16,-78 16,-130 130,-130 130,-78 16,-78"/>
</g>
<!-- CheckOutComponent -->
<g id="node1" class="node">
<title>CheckOutComponent</title>
<polygon fill="#ffffb3" stroke="#000000" points="1528.0954,-122 1389.9046,-122 1389.9046,-86 1528.0954,-86 1528.0954,-122"/>
<text text-anchor="middle" x="1459" y="-99.8" font-family="Times,serif" font-size="14.00" fill="#000000">CheckOutComponent</text>
</g>
<!-- ShoppingModule -->
<g id="node9" class="node">
<title>ShoppingModule</title>
<polygon fill="#8dd3c7" stroke="#000000" points="856.7232,-187 853.7232,-191 832.7232,-191 829.7232,-187 743.2768,-187 743.2768,-151 856.7232,-151 856.7232,-187"/>
<text text-anchor="middle" x="800" y="-164.8" font-family="Times,serif" font-size="14.00" fill="#000000">ShoppingModule</text>
</g>
<!-- CheckOutComponent&#45;&gt;ShoppingModule -->
<g id="edge1" class="edge">
<title>CheckOutComponent&#45;&gt;ShoppingModule</title>
<path fill="none" stroke="#000000" d="M1459,-122.0109C1459,-144.4852 1459,-180 1459,-180 1459,-180 866.7563,-180 866.7563,-180"/>
<polygon fill="#000000" stroke="#000000" points="866.7564,-176.5001 856.7563,-180 866.7563,-183.5001 866.7564,-176.5001"/>
</g>
<!-- MyOrdersComponent -->
<g id="node2" class="node">
<title>MyOrdersComponent</title>
<polygon fill="#ffffb3" stroke="#000000" points="1372.3641,-122 1233.6359,-122 1233.6359,-86 1372.3641,-86 1372.3641,-122"/>
<text text-anchor="middle" x="1303" y="-99.8" font-family="Times,serif" font-size="14.00" fill="#000000">MyOrdersComponent</text>
</g>
<!-- MyOrdersComponent&#45;&gt;ShoppingModule -->
<g id="edge2" class="edge">
<title>MyOrdersComponent&#45;&gt;ShoppingModule</title>
<path fill="none" stroke="#000000" d="M1303,-122.1289C1303,-142.5724 1303,-173 1303,-173 1303,-173 866.7227,-173 866.7227,-173"/>
<polygon fill="#000000" stroke="#000000" points="866.7228,-169.5001 856.7227,-173 866.7227,-176.5001 866.7228,-169.5001"/>
</g>
<!-- OrderSuccessComponent -->
<g id="node3" class="node">
<title>OrderSuccessComponent</title>
<polygon fill="#ffffb3" stroke="#000000" points="1215.2907,-122 1056.7093,-122 1056.7093,-86 1215.2907,-86 1215.2907,-122"/>
<text text-anchor="middle" x="1136" y="-99.8" font-family="Times,serif" font-size="14.00" fill="#000000">OrderSuccessComponent</text>
</g>
<!-- OrderSuccessComponent&#45;&gt;ShoppingModule -->
<g id="edge3" class="edge">
<title>OrderSuccessComponent&#45;&gt;ShoppingModule</title>
<path fill="none" stroke="#000000" d="M1136,-122.2667C1136,-140.5552 1136,-166 1136,-166 1136,-166 866.6179,-166 866.6179,-166"/>
<polygon fill="#000000" stroke="#000000" points="866.6179,-162.5001 856.6179,-166 866.6178,-169.5001 866.6179,-162.5001"/>
</g>
<!-- ProductFilterComponent -->
<g id="node4" class="node">
<title>ProductFilterComponent</title>
<polygon fill="#ffffb3" stroke="#000000" points="1038.7105,-122 883.2895,-122 883.2895,-86 1038.7105,-86 1038.7105,-122"/>
<text text-anchor="middle" x="961" y="-99.8" font-family="Times,serif" font-size="14.00" fill="#000000">ProductFilterComponent</text>
</g>
<!-- ProductFilterComponent&#45;&gt;ShoppingModule -->
<g id="edge4" class="edge">
<title>ProductFilterComponent&#45;&gt;ShoppingModule</title>
<path fill="none" stroke="#000000" d="M961,-122.0091C961,-138.0494 961,-159 961,-159 961,-159 866.7626,-159 866.7626,-159"/>
<polygon fill="#000000" stroke="#000000" points="866.7626,-155.5001 856.7626,-159 866.7625,-162.5001 866.7626,-155.5001"/>
</g>
<!-- ProductsComponent -->
<g id="node5" class="node">
<title>ProductsComponent</title>
<polygon fill="#ffffb3" stroke="#000000" points="865.3258,-122 734.6742,-122 734.6742,-86 865.3258,-86 865.3258,-122"/>
<text text-anchor="middle" x="800" y="-99.8" font-family="Times,serif" font-size="14.00" fill="#000000">ProductsComponent</text>
</g>
<!-- ProductsComponent&#45;&gt;ShoppingModule -->
<g id="edge5" class="edge">
<title>ProductsComponent&#45;&gt;ShoppingModule</title>
<path fill="none" stroke="#000000" d="M800,-122.1061C800,-122.1061 800,-140.991 800,-140.991"/>
<polygon fill="#000000" stroke="#000000" points="796.5001,-140.9909 800,-150.991 803.5001,-140.991 796.5001,-140.9909"/>
</g>
<!-- ShippingFormComponent -->
<g id="node6" class="node">
<title>ShippingFormComponent</title>
<polygon fill="#ffffb3" stroke="#000000" points="717.2302,-122 554.7698,-122 554.7698,-86 717.2302,-86 717.2302,-122"/>
<text text-anchor="middle" x="636" y="-99.8" font-family="Times,serif" font-size="14.00" fill="#000000">ShippingFormComponent</text>
</g>
<!-- ShippingFormComponent&#45;&gt;ShoppingModule -->
<g id="edge6" class="edge">
<title>ShippingFormComponent&#45;&gt;ShoppingModule</title>
<path fill="none" stroke="#000000" d="M636,-122.0091C636,-138.0494 636,-159 636,-159 636,-159 733.101,-159 733.101,-159"/>
<polygon fill="#000000" stroke="#000000" points="733.1011,-162.5001 743.101,-159 733.101,-155.5001 733.1011,-162.5001"/>
</g>
<!-- ShoppingCartComponent -->
<g id="node7" class="node">
<title>ShoppingCartComponent</title>
<polygon fill="#ffffb3" stroke="#000000" points="536.608,-122 377.392,-122 377.392,-86 536.608,-86 536.608,-122"/>
<text text-anchor="middle" x="457" y="-99.8" font-family="Times,serif" font-size="14.00" fill="#000000">ShoppingCartComponent</text>
</g>
<!-- ShoppingCartComponent&#45;&gt;ShoppingModule -->
<g id="edge7" class="edge">
<title>ShoppingCartComponent&#45;&gt;ShoppingModule</title>
<path fill="none" stroke="#000000" d="M457,-122.2667C457,-140.5552 457,-166 457,-166 457,-166 733.3605,-166 733.3605,-166"/>
<polygon fill="#000000" stroke="#000000" points="733.3606,-169.5001 743.3605,-166 733.3605,-162.5001 733.3606,-169.5001"/>
</g>
<!-- ShoppingCartSummaryComponent -->
<g id="node8" class="node">
<title>ShoppingCartSummaryComponent</title>
<polygon fill="#ffffb3" stroke="#000000" points="359.5475,-122 146.4525,-122 146.4525,-86 359.5475,-86 359.5475,-122"/>
<text text-anchor="middle" x="253" y="-99.8" font-family="Times,serif" font-size="14.00" fill="#000000">ShoppingCartSummaryComponent</text>
</g>
<!-- ShoppingCartSummaryComponent&#45;&gt;ShoppingModule -->
<g id="edge8" class="edge">
<title>ShoppingCartSummaryComponent&#45;&gt;ShoppingModule</title>
<path fill="none" stroke="#000000" d="M253,-122.1289C253,-142.5724 253,-173 253,-173 253,-173 733.2658,-173 733.2658,-173"/>
<polygon fill="#000000" stroke="#000000" points="733.2658,-176.5001 743.2658,-173 733.2657,-169.5001 733.2658,-176.5001"/>
</g>
<!-- SharedModule -->
<g id="node10" class="node">
<title>SharedModule</title>
<polygon fill="#8dd3c7" stroke="#000000" points="122.4231,-122 119.4231,-126 98.4231,-126 95.4231,-122 23.5769,-122 23.5769,-86 122.4231,-86 122.4231,-122"/>
<text text-anchor="middle" x="73" y="-99.8" font-family="Times,serif" font-size="14.00" fill="#000000">SharedModule</text>
</g>
<!-- SharedModule&#45;&gt;ShoppingModule -->
<g id="edge9" class="edge">
<title>SharedModule&#45;&gt;ShoppingModule</title>
<path fill="none" stroke="#000000" d="M73,-122.0109C73,-144.4852 73,-180 73,-180 73,-180 733.2563,-180 733.2563,-180"/>
<polygon fill="#000000" stroke="#000000" points="733.2564,-183.5001 743.2563,-180 733.2563,-176.5001 733.2564,-183.5001"/>
</g>
</g>
</svg>
