<?xml version="1.0" encoding="UTF-8" standalone="no"?>
<!DOCTYPE svg PUBLIC "-//W3C//DTD SVG 1.1//EN"
 "http://www.w3.org/Graphics/SVG/1.1/DTD/svg11.dtd">
<!-- Generated by graphviz version 2.40.1 (20161225.0304)
 -->
<!-- Title: dependencies Pages: 1 -->
<svg width="894pt" height="211pt"
 viewBox="0.00 0.00 894.00 211.00" xmlns="http://www.w3.org/2000/svg" xmlns:xlink="http://www.w3.org/1999/xlink">
<g id="graph0" class="graph" transform="scale(1 1) rotate(0) translate(4 207)">
<title>dependencies</title>
<polygon fill="#ffffff" stroke="transparent" points="-4,4 -4,-207 890,-207 890,4 -4,4"/>
<text text-anchor="start" x="422.0091" y="-42.4" font-family="sans-serif" font-weight="bold" font-size="14.00" fill="#000000">Legend</text>
<polygon fill="#ffffb3" stroke="transparent" points="209,-10 209,-30 229,-30 229,-10 209,-10"/>
<text text-anchor="start" x="232.629" y="-15.4" font-family="sans-serif" font-size="14.00" fill="#000000"> &#160;Declarations</text>
<polygon fill="#8dd3c7" stroke="transparent" points="322,-10 322,-30 342,-30 342,-10 322,-10"/>
<text text-anchor="start" x="345.7251" y="-15.4" font-family="sans-serif" font-size="14.00" fill="#000000"> &#160;Module</text>
<polygon fill="#80b1d3" stroke="transparent" points="408,-10 408,-30 428,-30 428,-10 408,-10"/>
<text text-anchor="start" x="431.7812" y="-15.4" font-family="sans-serif" font-size="14.00" fill="#000000"> &#160;Bootstrap</text>
<polygon fill="#fdb462" stroke="transparent" points="505,-10 505,-30 525,-30 525,-10 505,-10"/>
<text text-anchor="start" x="528.6732" y="-15.4" font-family="sans-serif" font-size="14.00" fill="#000000"> &#160;Providers</text>
<polygon fill="#fb8072" stroke="transparent" points="601,-10 601,-30 621,-30 621,-10 601,-10"/>
<text text-anchor="start" x="624.7258" y="-15.4" font-family="sans-serif" font-size="14.00" fill="#000000"> &#160;Exports</text>
<g id="clust1" class="cluster">
<title>cluster_AdminModule</title>
<polygon fill="none" stroke="#000000" stroke-dasharray="1,5" points="8,-70 8,-195 878,-195 878,-70 8,-70"/>
</g>
<g id="clust2" class="cluster">
<title>cluster_AdminModule_declarations</title>
<polygon fill="none" stroke="#000000" points="138,-78 138,-130 870,-130 870,-78 138,-78"/>
</g>
<g id="clust7" class="cluster">
<title>cluster_AdminModule_imports</title>
<polygon fill="none" stroke="#000000" points="16,-78 16,-130 130,-130 130,-78 16,-78"/>
</g>
<!-- AdminOrdersComponent -->
<g id="node1" class="node">
<title>AdminOrdersComponent</title>
<polygon fill="#ffffb3" stroke="#000000" points="862.3075,-122 703.6925,-122 703.6925,-86 862.3075,-86 862.3075,-122"/>
<text text-anchor="middle" x="783" y="-99.8" font-family="Times,serif" font-size="14.00" fill="#000000">AdminOrdersComponent</text>
</g>
<!-- AdminModule -->
<g id="node5" class="node">
<title>AdminModule</title>
<polygon fill="#8dd3c7" stroke="#000000" points="458.4386,-187 455.4386,-191 434.4386,-191 431.4386,-187 359.5614,-187 359.5614,-151 458.4386,-151 458.4386,-187"/>
<text text-anchor="middle" x="409" y="-164.8" font-family="Times,serif" font-size="14.00" fill="#000000">AdminModule</text>
</g>
<!-- AdminOrdersComponent&#45;&gt;AdminModule -->
<g id="edge1" class="edge">
<title>AdminOrdersComponent&#45;&gt;AdminModule</title>
<path fill="none" stroke="#000000" d="M783,-122.2843C783,-143.3211 783,-175 783,-175 783,-175 468.2786,-175 468.2786,-175"/>
<polygon fill="#000000" stroke="#000000" points="468.2786,-171.5001 458.2786,-175 468.2785,-178.5001 468.2786,-171.5001"/>
</g>
<!-- AdminProductsComponent -->
<g id="node2" class="node">
<title>AdminProductsComponent</title>
<polygon fill="#ffffb3" stroke="#000000" points="685.7133,-122 516.2867,-122 516.2867,-86 685.7133,-86 685.7133,-122"/>
<text text-anchor="middle" x="601" y="-99.8" font-family="Times,serif" font-size="14.00" fill="#000000">AdminProductsComponent</text>
</g>
<!-- AdminProductsComponent&#45;&gt;AdminModule -->
<g id="edge2" class="edge">
<title>AdminProductsComponent&#45;&gt;AdminModule</title>
<path fill="none" stroke="#000000" d="M601,-122.0225C601,-139.3734 601,-163 601,-163 601,-163 468.4448,-163 468.4448,-163"/>
<polygon fill="#000000" stroke="#000000" points="468.4448,-159.5001 458.4448,-163 468.4447,-166.5001 468.4448,-159.5001"/>
</g>
<!-- OrderDescriptionComponent -->
<g id="node3" class="node">
<title>OrderDescriptionComponent</title>
<polygon fill="#ffffb3" stroke="#000000" points="498.7878,-122 319.2122,-122 319.2122,-86 498.7878,-86 498.7878,-122"/>
<text text-anchor="middle" x="409" y="-99.8" font-family="Times,serif" font-size="14.00" fill="#000000">OrderDescriptionComponent</text>
</g>
<!-- OrderDescriptionComponent&#45;&gt;AdminModule -->
<g id="edge3" class="edge">
<title>OrderDescriptionComponent&#45;&gt;AdminModule</title>
<path fill="none" stroke="#000000" d="M409,-122.1061C409,-122.1061 409,-140.991 409,-140.991"/>
<polygon fill="#000000" stroke="#000000" points="405.5001,-140.9909 409,-150.991 412.5001,-140.991 405.5001,-140.9909"/>
</g>
<!-- ProductFormComponent -->
<g id="node4" class="node">
<title>ProductFormComponent</title>
<polygon fill="#ffffb3" stroke="#000000" points="301.7147,-122 146.2853,-122 146.2853,-86 301.7147,-86 301.7147,-122"/>
<text text-anchor="middle" x="224" y="-99.8" font-family="Times,serif" font-size="14.00" fill="#000000">ProductFormComponent</text>
</g>
<!-- ProductFormComponent&#45;&gt;AdminModule -->
<g id="edge4" class="edge">
<title>ProductFormComponent&#45;&gt;AdminModule</title>
<path fill="none" stroke="#000000" d="M224,-122.0225C224,-139.3734 224,-163 224,-163 224,-163 349.4234,-163 349.4234,-163"/>
<polygon fill="#000000" stroke="#000000" points="349.4234,-166.5001 359.4234,-163 349.4234,-159.5001 349.4234,-166.5001"/>
</g>
<!-- SharedModule -->
<g id="node6" class="node">
<title>SharedModule</title>
<polygon fill="#8dd3c7" stroke="#000000" points="122.4231,-122 119.4231,-126 98.4231,-126 95.4231,-122 23.5769,-122 23.5769,-86 122.4231,-86 122.4231,-122"/>
<text text-anchor="middle" x="73" y="-99.8" font-family="Times,serif" font-size="14.00" fill="#000000">SharedModule</text>
</g>
<!-- SharedModule&#45;&gt;AdminModule -->
<g id="edge5" class="edge">
<title>SharedModule&#45;&gt;AdminModule</title>
<path fill="none" stroke="#000000" d="M73,-122.2843C73,-143.3211 73,-175 73,-175 73,-175 349.422,-175 349.422,-175"/>
<polygon fill="#000000" stroke="#000000" points="349.4221,-178.5001 359.422,-175 349.422,-171.5001 349.4221,-178.5001"/>
</g>
</g>
</svg>
