<?xml version="1.0" encoding="UTF-8" standalone="no"?>
<!DOCTYPE svg PUBLIC "-//W3C//DTD SVG 1.1//EN"
 "http://www.w3.org/Graphics/SVG/1.1/DTD/svg11.dtd">
<!-- Generated by graphviz version 2.40.1 (20161225.0304)
 -->
<!-- Title: dependencies Pages: 1 -->
<svg width="3349pt" height="436pt"
 viewBox="0.00 0.00 3349.00 436.00" xmlns="http://www.w3.org/2000/svg" xmlns:xlink="http://www.w3.org/1999/xlink">
<g id="graph0" class="graph" transform="scale(1 1) rotate(0) translate(4 432)">
<title>dependencies</title>
<polygon fill="#ffffff" stroke="transparent" points="-4,4 -4,-432 3345,-432 3345,4 -4,4"/>
<text text-anchor="start" x="1649.5091" y="-42.4" font-family="sans-serif" font-weight="bold" font-size="14.00" fill="#000000">Legend</text>
<polygon fill="#ffffb3" stroke="transparent" points="1436.5,-10 1436.5,-30 1456.5,-30 1456.5,-10 1436.5,-10"/>
<text text-anchor="start" x="1460.129" y="-15.4" font-family="sans-serif" font-size="14.00" fill="#000000"> &#160;Declarations</text>
<polygon fill="#8dd3c7" stroke="transparent" points="1549.5,-10 1549.5,-30 1569.5,-30 1569.5,-10 1549.5,-10"/>
<text text-anchor="start" x="1573.2251" y="-15.4" font-family="sans-serif" font-size="14.00" fill="#000000"> &#160;Module</text>
<polygon fill="#80b1d3" stroke="transparent" points="1635.5,-10 1635.5,-30 1655.5,-30 1655.5,-10 1635.5,-10"/>
<text text-anchor="start" x="1659.2812" y="-15.4" font-family="sans-serif" font-size="14.00" fill="#000000"> &#160;Bootstrap</text>
<polygon fill="#fdb462" stroke="transparent" points="1732.5,-10 1732.5,-30 1752.5,-30 1752.5,-10 1732.5,-10"/>
<text text-anchor="start" x="1756.1732" y="-15.4" font-family="sans-serif" font-size="14.00" fill="#000000"> &#160;Providers</text>
<polygon fill="#fb8072" stroke="transparent" points="1828.5,-10 1828.5,-30 1848.5,-30 1848.5,-10 1828.5,-10"/>
<text text-anchor="start" x="1852.2258" y="-15.4" font-family="sans-serif" font-size="14.00" fill="#000000"> &#160;Exports</text>
<g id="clust1" class="cluster">
<title>cluster_AdminModule</title>
<polygon fill="none" stroke="#000000" stroke-dasharray="1,5" points="2037,-146 2037,-282 2908,-282 2908,-146 2037,-146"/>
</g>
<g id="clust2" class="cluster">
<title>cluster_AdminModule_declarations</title>
<polygon fill="none" stroke="#000000" points="2167,-154 2167,-206 2900,-206 2900,-154 2167,-154"/>
</g>
<g id="clust7" class="cluster">
<title>cluster_AdminModule_imports</title>
<polygon fill="none" stroke="#000000" points="2045,-154 2045,-206 2159,-206 2159,-154 2045,-154"/>
</g>
<g id="clust11" class="cluster">
<title>cluster_AppModule</title>
<polygon fill="none" stroke="#000000" stroke-dasharray="1,5" points="1118,-222 1118,-420 1498,-420 1498,-222 1118,-222"/>
</g>
<g id="clust12" class="cluster">
<title>cluster_AppModule_declarations</title>
<polygon fill="none" stroke="#000000" points="1368,-230 1368,-282 1490,-282 1490,-230 1368,-230"/>
</g>
<g id="clust14" class="cluster">
<title>cluster_AppModule_imports</title>
<polygon fill="none" stroke="#000000" points="1126,-230 1126,-282 1360,-282 1360,-230 1126,-230"/>
</g>
<g id="clust16" class="cluster">
<title>cluster_AppModule_bootstrap</title>
<polygon fill="none" stroke="#000000" points="1366,-360 1366,-412 1490,-412 1490,-360 1366,-360"/>
</g>
<g id="clust24" class="cluster">
<title>cluster_CoreModule</title>
<polygon fill="none" stroke="#000000" stroke-dasharray="1,5" points="8,-146 8,-214 607,-214 607,-146 8,-146"/>
</g>
<g id="clust25" class="cluster">
<title>cluster_CoreModule_declarations</title>
<polygon fill="none" stroke="#000000" points="180,-154 180,-206 599,-206 599,-154 180,-154"/>
</g>
<g id="clust30" class="cluster">
<title>cluster_CoreModule_exports</title>
<polygon fill="none" stroke="#000000" points="16,-154 16,-206 172,-206 172,-154 16,-154"/>
</g>
<g id="clust33" class="cluster">
<title>cluster_SharedModule</title>
<polygon fill="none" stroke="#000000" stroke-dasharray="1,5" points="1042,-70 1042,-138 3333,-138 3333,-70 1042,-70"/>
</g>
<g id="clust34" class="cluster">
<title>cluster_SharedModule_declarations</title>
<polygon fill="none" stroke="#000000" points="2757,-78 2757,-130 3325,-130 3325,-78 2757,-78"/>
</g>
<g id="clust39" class="cluster">
<title>cluster_SharedModule_exports</title>
<polygon fill="none" stroke="#000000" points="2382,-78 2382,-130 2749,-130 2749,-78 2382,-78"/>
</g>
<g id="clust41" class="cluster">
<title>cluster_SharedModule_providers</title>
<polygon fill="none" stroke="#000000" points="1050,-78 1050,-130 2374,-130 2374,-78 1050,-78"/>
</g>
<g id="clust42" class="cluster">
<title>cluster_ShoppingModule</title>
<polygon fill="none" stroke="#000000" stroke-dasharray="1,5" points="615,-146 615,-214 2029,-214 2029,-146 615,-146"/>
</g>
<g id="clust43" class="cluster">
<title>cluster_ShoppingModule_declarations</title>
<polygon fill="none" stroke="#000000" points="623,-154 623,-206 2021,-206 2021,-154 623,-154"/>
</g>
<!-- AdminOrdersComponent -->
<g id="node1" class="node">
<title>AdminOrdersComponent</title>
<polygon fill="#ffffb3" stroke="#000000" points="2521.3075,-198 2362.6925,-198 2362.6925,-162 2521.3075,-162 2521.3075,-198"/>
<text text-anchor="middle" x="2442" y="-175.8" font-family="Times,serif" font-size="14.00" fill="#000000">AdminOrdersComponent</text>
</g>
<!-- AdminModule -->
<g id="node5" class="node">
<title>AdminModule</title>
<polygon fill="#8dd3c7" stroke="#000000" points="2230.4386,-274 2227.4386,-278 2206.4386,-278 2203.4386,-274 2131.5614,-274 2131.5614,-238 2230.4386,-238 2230.4386,-274"/>
<text text-anchor="middle" x="2181" y="-251.8" font-family="Times,serif" font-size="14.00" fill="#000000">AdminModule</text>
</g>
<!-- AdminOrdersComponent&#45;&gt;AdminModule -->
<g id="edge1" class="edge">
<title>AdminOrdersComponent&#45;&gt;AdminModule</title>
<path fill="none" stroke="#000000" d="M2442,-198.308C2442,-218.1455 2442,-247 2442,-247 2442,-247 2240.3989,-247 2240.3989,-247"/>
<polygon fill="#000000" stroke="#000000" points="2240.399,-243.5001 2230.3989,-247 2240.3989,-250.5001 2240.399,-243.5001"/>
</g>
<!-- AdminProductsComponent -->
<g id="node2" class="node">
<title>AdminProductsComponent</title>
<polygon fill="#ffffb3" stroke="#000000" points="2344.7133,-198 2175.2867,-198 2175.2867,-162 2344.7133,-162 2344.7133,-198"/>
<text text-anchor="middle" x="2260" y="-175.8" font-family="Times,serif" font-size="14.00" fill="#000000">AdminProductsComponent</text>
</g>
<!-- AdminProductsComponent&#45;&gt;AdminModule -->
<g id="edge2" class="edge">
<title>AdminProductsComponent&#45;&gt;AdminModule</title>
<path fill="none" stroke="#000000" d="M2202.8061,-198.0109C2202.8061,-198.0109 2202.8061,-227.855 2202.8061,-227.855"/>
<polygon fill="#000000" stroke="#000000" points="2199.3062,-227.8549 2202.8061,-237.855 2206.3062,-227.855 2199.3062,-227.8549"/>
</g>
<!-- OrderDescriptionComponent -->
<g id="node3" class="node">
<title>OrderDescriptionComponent</title>
<polygon fill="#ffffb3" stroke="#000000" points="2891.7878,-198 2712.2122,-198 2712.2122,-162 2891.7878,-162 2891.7878,-198"/>
<text text-anchor="middle" x="2802" y="-175.8" font-family="Times,serif" font-size="14.00" fill="#000000">OrderDescriptionComponent</text>
</g>
<!-- OrderDescriptionComponent&#45;&gt;AdminModule -->
<g id="edge3" class="edge">
<title>OrderDescriptionComponent&#45;&gt;AdminModule</title>
<path fill="none" stroke="#000000" d="M2802,-198.0263C2802,-222.9773 2802,-265 2802,-265 2802,-265 2240.2479,-265 2240.2479,-265"/>
<polygon fill="#000000" stroke="#000000" points="2240.2479,-261.5001 2230.2479,-265 2240.2479,-268.5001 2240.2479,-261.5001"/>
</g>
<!-- ProductFormComponent -->
<g id="node4" class="node">
<title>ProductFormComponent</title>
<polygon fill="#ffffb3" stroke="#000000" points="2694.7147,-198 2539.2853,-198 2539.2853,-162 2694.7147,-162 2694.7147,-198"/>
<text text-anchor="middle" x="2617" y="-175.8" font-family="Times,serif" font-size="14.00" fill="#000000">ProductFormComponent</text>
</g>
<!-- ProductFormComponent&#45;&gt;AdminModule -->
<g id="edge4" class="edge">
<title>ProductFormComponent&#45;&gt;AdminModule</title>
<path fill="none" stroke="#000000" d="M2617,-198.0109C2617,-220.4852 2617,-256 2617,-256 2617,-256 2240.5903,-256 2240.5903,-256"/>
<polygon fill="#000000" stroke="#000000" points="2240.5903,-252.5001 2230.5903,-256 2240.5902,-259.5001 2240.5903,-252.5001"/>
</g>
<!-- AppModule -->
<g id="node8" class="node">
<title>AppModule</title>
<polygon fill="#8dd3c7" stroke="#000000" points="1469.6571,-339 1466.6571,-343 1445.6571,-343 1442.6571,-339 1386.3429,-339 1386.3429,-303 1469.6571,-303 1469.6571,-339"/>
<text text-anchor="middle" x="1428" y="-316.8" font-family="Times,serif" font-size="14.00" fill="#000000">AppModule</text>
</g>
<!-- AdminModule&#45;&gt;AppModule -->
<g id="edge7" class="edge">
<title>AdminModule&#45;&gt;AppModule</title>
<path fill="none" stroke="#000000" d="M2181,-274.2843C2181,-295.3211 2181,-327 2181,-327 2181,-327 1479.8272,-327 1479.8272,-327"/>
<polygon fill="#000000" stroke="#000000" points="1479.8272,-323.5001 1469.8272,-327 1479.8272,-330.5001 1479.8272,-323.5001"/>
</g>
<!-- SharedModule -->
<g id="node6" class="node">
<title>SharedModule</title>
<polygon fill="#8dd3c7" stroke="#000000" points="2151.4231,-198 2148.4231,-202 2127.4231,-202 2124.4231,-198 2052.5769,-198 2052.5769,-162 2151.4231,-162 2151.4231,-198"/>
<text text-anchor="middle" x="2102" y="-175.8" font-family="Times,serif" font-size="14.00" fill="#000000">SharedModule</text>
</g>
<!-- SharedModule&#45;&gt;AdminModule -->
<g id="edge5" class="edge">
<title>SharedModule&#45;&gt;AdminModule</title>
<path fill="none" stroke="#000000" d="M2141.4962,-198.0109C2141.4962,-198.0109 2141.4962,-227.855 2141.4962,-227.855"/>
<polygon fill="#000000" stroke="#000000" points="2137.9962,-227.8549 2141.4962,-237.855 2144.9962,-227.855 2137.9962,-227.8549"/>
</g>
<!-- SharedModule&#45;&gt;AppModule -->
<g id="edge9" class="edge">
<title>SharedModule&#45;&gt;AppModule</title>
<path fill="none" stroke="#000000" d="M2112.0331,-198.2067C2112.0331,-235.0559 2112.0331,-315 2112.0331,-315 2112.0331,-315 1479.7596,-315 1479.7596,-315"/>
<polygon fill="#000000" stroke="#000000" points="1479.7597,-311.5001 1469.7596,-315 1479.7596,-318.5001 1479.7597,-311.5001"/>
</g>
<!-- CoreModule -->
<g id="node9" class="node">
<title>CoreModule</title>
<polygon fill="#8dd3c7" stroke="#000000" points="1220.2619,-274 1217.2619,-278 1196.2619,-278 1193.2619,-274 1133.7381,-274 1133.7381,-238 1220.2619,-238 1220.2619,-274"/>
<text text-anchor="middle" x="1177" y="-251.8" font-family="Times,serif" font-size="14.00" fill="#000000">CoreModule</text>
</g>
<!-- SharedModule&#45;&gt;CoreModule -->
<g id="edge15" class="edge">
<title>SharedModule&#45;&gt;CoreModule</title>
<path fill="none" stroke="#000000" d="M2072.537,-198.1223C2072.537,-200.9729 2072.537,-203 2072.537,-203 2072.537,-203 1177,-203 1177,-203 1177,-203 1177,-227.7604 1177,-227.7604"/>
<polygon fill="#000000" stroke="#000000" points="1173.5001,-227.7604 1177,-237.7604 1180.5001,-227.7604 1173.5001,-227.7604"/>
</g>
<!-- ShoppingModule -->
<g id="node10" class="node">
<title>ShoppingModule</title>
<polygon fill="#8dd3c7" stroke="#000000" points="1351.7232,-274 1348.7232,-278 1327.7232,-278 1324.7232,-274 1238.2768,-274 1238.2768,-238 1351.7232,-238 1351.7232,-274"/>
<text text-anchor="middle" x="1295" y="-251.8" font-family="Times,serif" font-size="14.00" fill="#000000">ShoppingModule</text>
</g>
<!-- SharedModule&#45;&gt;ShoppingModule -->
<g id="edge38" class="edge">
<title>SharedModule&#45;&gt;ShoppingModule</title>
<path fill="none" stroke="#000000" d="M2092.2851,-198.2819C2092.2851,-213.9478 2092.2851,-234 2092.2851,-234 2092.2851,-234 1344.6042,-234 1344.6042,-234 1344.6042,-234 1344.6042,-234.3832 1344.6042,-234.3832"/>
<polygon fill="#000000" stroke="#000000" points="1341.1045,-227.832 1344.6042,-237.8321 1348.1045,-227.8322 1341.1045,-227.832"/>
</g>
<!-- ProductCardComponent  -->
<g id="node19" class="node">
<title>ProductCardComponent </title>
<polygon fill="#fb8072" stroke="#000000" points="2740.5931,-122 2585.4069,-122 2585.4069,-86 2740.5931,-86 2740.5931,-122"/>
<text text-anchor="middle" x="2663" y="-99.8" font-family="Times,serif" font-size="14.00" fill="#000000">ProductCardComponent </text>
</g>
<!-- SharedModule&#45;&gt;ProductCardComponent  -->
<g id="edge20" class="edge">
<title>SharedModule&#45;&gt;ProductCardComponent </title>
<path fill="none" stroke="#000000" stroke-dasharray="5,2" d="M2143.0093,-161.9489C2143.0093,-147.627 2143.0093,-130 2143.0093,-130 2143.0093,-130 2639.9055,-130 2639.9055,-130 2639.9055,-130 2639.9055,-129.2058 2639.9055,-129.2058"/>
<polygon fill="#000000" stroke="#000000" points="2643.4056,-132.0578 2639.9055,-122.0579 2636.4056,-132.0579 2643.4056,-132.0578"/>
</g>
<!-- ProductQuantityComponent  -->
<g id="node20" class="node">
<title>ProductQuantityComponent </title>
<polygon fill="#fb8072" stroke="#000000" points="2567.8742,-122 2390.1258,-122 2390.1258,-86 2567.8742,-86 2567.8742,-122"/>
<text text-anchor="middle" x="2479" y="-99.8" font-family="Times,serif" font-size="14.00" fill="#000000">ProductQuantityComponent </text>
</g>
<!-- SharedModule&#45;&gt;ProductQuantityComponent  -->
<g id="edge21" class="edge">
<title>SharedModule&#45;&gt;ProductQuantityComponent </title>
<path fill="none" stroke="#000000" stroke-dasharray="5,2" d="M2134.8074,-161.7181C2134.8074,-146.0522 2134.8074,-126 2134.8074,-126 2134.8074,-126 2455.7334,-126 2455.7334,-126 2455.7334,-126 2455.7334,-125.6168 2455.7334,-125.6168"/>
<polygon fill="#000000" stroke="#000000" points="2459.2336,-132.1678 2455.7334,-122.1679 2452.2336,-132.168 2459.2336,-132.1678"/>
</g>
<!-- AppComponent -->
<g id="node7" class="node">
<title>AppComponent</title>
<polygon fill="#ffffb3" stroke="#000000" points="1481.9399,-274 1376.0601,-274 1376.0601,-238 1481.9399,-238 1481.9399,-274"/>
<text text-anchor="middle" x="1429" y="-251.8" font-family="Times,serif" font-size="14.00" fill="#000000">AppComponent</text>
</g>
<!-- AppComponent&#45;&gt;AppModule -->
<g id="edge6" class="edge">
<title>AppComponent&#45;&gt;AppModule</title>
<path fill="none" stroke="#000000" d="M1428,-274.1061C1428,-274.1061 1428,-292.991 1428,-292.991"/>
<polygon fill="#000000" stroke="#000000" points="1424.5001,-292.9909 1428,-302.991 1431.5001,-292.991 1424.5001,-292.9909"/>
</g>
<!-- AppComponent  -->
<g id="node11" class="node">
<title>AppComponent </title>
<polygon fill="#80b1d3" stroke="#000000" points="1482.439,-404 1373.561,-404 1373.561,-368 1482.439,-368 1482.439,-404"/>
<text text-anchor="middle" x="1428" y="-381.8" font-family="Times,serif" font-size="14.00" fill="#000000">AppComponent </text>
</g>
<!-- AppModule&#45;&gt;AppComponent  -->
<g id="edge11" class="edge">
<title>AppModule&#45;&gt;AppComponent </title>
<path fill="none" stroke="#000000" stroke-dasharray="1,5" d="M1428,-339.1061C1428,-339.1061 1428,-357.991 1428,-357.991"/>
<polygon fill="#000000" stroke="#000000" points="1424.5001,-357.9909 1428,-367.991 1431.5001,-357.991 1424.5001,-357.9909"/>
</g>
<!-- CoreModule&#45;&gt;AppModule -->
<g id="edge8" class="edge">
<title>CoreModule&#45;&gt;AppModule</title>
<path fill="none" stroke="#000000" d="M1177,-274.2843C1177,-295.3211 1177,-327 1177,-327 1177,-327 1376.2707,-327 1376.2707,-327"/>
<polygon fill="#000000" stroke="#000000" points="1376.2707,-330.5001 1386.2707,-327 1376.2707,-323.5001 1376.2707,-330.5001"/>
</g>
<!-- BsNavbarComponent  -->
<g id="node15" class="node">
<title>BsNavbarComponent </title>
<polygon fill="#fb8072" stroke="#000000" points="164.3101,-198 23.6899,-198 23.6899,-162 164.3101,-162 164.3101,-198"/>
<text text-anchor="middle" x="94" y="-175.8" font-family="Times,serif" font-size="14.00" fill="#000000">BsNavbarComponent </text>
</g>
<!-- CoreModule&#45;&gt;BsNavbarComponent  -->
<g id="edge16" class="edge">
<title>CoreModule&#45;&gt;BsNavbarComponent </title>
<path fill="none" stroke="#000000" stroke-dasharray="5,2" d="M1133.5409,-267C931.5215,-267 94,-267 94,-267 94,-267 94,-208.0265 94,-208.0265"/>
<polygon fill="#000000" stroke="#000000" points="97.5001,-208.0264 94,-198.0265 90.5001,-208.0265 97.5001,-208.0264"/>
</g>
<!-- ShoppingModule&#45;&gt;AppModule -->
<g id="edge10" class="edge">
<title>ShoppingModule&#45;&gt;AppModule</title>
<path fill="none" stroke="#000000" d="M1295,-274.0225C1295,-291.3734 1295,-315 1295,-315 1295,-315 1376.2829,-315 1376.2829,-315"/>
<polygon fill="#000000" stroke="#000000" points="1376.2829,-318.5001 1386.2829,-315 1376.2828,-311.5001 1376.2829,-318.5001"/>
</g>
<!-- BsNavbarComponent -->
<g id="node12" class="node">
<title>BsNavbarComponent</title>
<polygon fill="#ffffb3" stroke="#000000" points="458.8104,-198 321.1896,-198 321.1896,-162 458.8104,-162 458.8104,-198"/>
<text text-anchor="middle" x="390" y="-175.8" font-family="Times,serif" font-size="14.00" fill="#000000">BsNavbarComponent</text>
</g>
<!-- BsNavbarComponent&#45;&gt;CoreModule -->
<g id="edge12" class="edge">
<title>BsNavbarComponent&#45;&gt;CoreModule</title>
<path fill="none" stroke="#000000" d="M390,-198.0449C390,-219.6623 390,-253 390,-253 390,-253 1123.5664,-253 1123.5664,-253"/>
<polygon fill="#000000" stroke="#000000" points="1123.5665,-256.5001 1133.5664,-253 1123.5664,-249.5001 1123.5665,-256.5001"/>
</g>
<!-- HomeComponent -->
<g id="node13" class="node">
<title>HomeComponent</title>
<polygon fill="#ffffb3" stroke="#000000" points="303.5451,-198 188.4549,-198 188.4549,-162 303.5451,-162 303.5451,-198"/>
<text text-anchor="middle" x="246" y="-175.8" font-family="Times,serif" font-size="14.00" fill="#000000">HomeComponent</text>
</g>
<!-- HomeComponent&#45;&gt;CoreModule -->
<g id="edge13" class="edge">
<title>HomeComponent&#45;&gt;CoreModule</title>
<path fill="none" stroke="#000000" d="M246,-198.1532C246,-221.7566 246,-260 246,-260 246,-260 1123.6544,-260 1123.6544,-260"/>
<polygon fill="#000000" stroke="#000000" points="1123.6544,-263.5001 1133.6544,-260 1123.6543,-256.5001 1123.6544,-263.5001"/>
</g>
<!-- LoginComponent -->
<g id="node14" class="node">
<title>LoginComponent</title>
<polygon fill="#ffffb3" stroke="#000000" points="591.2758,-198 476.7242,-198 476.7242,-162 591.2758,-162 591.2758,-198"/>
<text text-anchor="middle" x="534" y="-175.8" font-family="Times,serif" font-size="14.00" fill="#000000">LoginComponent</text>
</g>
<!-- LoginComponent&#45;&gt;CoreModule -->
<g id="edge14" class="edge">
<title>LoginComponent&#45;&gt;CoreModule</title>
<path fill="none" stroke="#000000" d="M534,-198.0348C534,-217.5762 534,-246 534,-246 534,-246 1123.5613,-246 1123.5613,-246"/>
<polygon fill="#000000" stroke="#000000" points="1123.5614,-249.5001 1133.5613,-246 1123.5613,-242.5001 1123.5614,-249.5001"/>
</g>
<!-- ProductCardComponent -->
<g id="node16" class="node">
<title>ProductCardComponent</title>
<polygon fill="#ffffb3" stroke="#000000" points="2917.0926,-122 2764.9074,-122 2764.9074,-86 2917.0926,-86 2917.0926,-122"/>
<text text-anchor="middle" x="2841" y="-99.8" font-family="Times,serif" font-size="14.00" fill="#000000">ProductCardComponent</text>
</g>
<!-- ProductCardComponent&#45;&gt;SharedModule -->
<g id="edge17" class="edge">
<title>ProductCardComponent&#45;&gt;SharedModule</title>
<path fill="none" stroke="#000000" d="M2828.2988,-122.2015C2828.2988,-128.028 2828.2988,-133 2828.2988,-133 2828.2988,-133 2110.2019,-133 2110.2019,-133 2110.2019,-133 2110.2019,-151.963 2110.2019,-151.963"/>
<polygon fill="#000000" stroke="#000000" points="2106.7019,-151.963 2110.2019,-161.963 2113.7019,-151.963 2106.7019,-151.963"/>
</g>
<!-- ProductDescriptionComponent -->
<g id="node17" class="node">
<title>ProductDescriptionComponent</title>
<polygon fill="#ffffb3" stroke="#000000" points="3317.1937,-122 3126.8063,-122 3126.8063,-86 3317.1937,-86 3317.1937,-122"/>
<text text-anchor="middle" x="3222" y="-99.8" font-family="Times,serif" font-size="14.00" fill="#000000">ProductDescriptionComponent</text>
</g>
<!-- ProductDescriptionComponent&#45;&gt;SharedModule -->
<g id="edge18" class="edge">
<title>ProductDescriptionComponent&#45;&gt;SharedModule</title>
<path fill="none" stroke="#000000" d="M3222,-122.0664C3222,-131.4587 3222,-141 3222,-141 3222,-141 2126.6056,-141 2126.6056,-141 2126.6056,-141 2126.6056,-151.8701 2126.6056,-151.8701"/>
<polygon fill="#000000" stroke="#000000" points="2123.1056,-151.8701 2126.6056,-161.8701 2130.1056,-151.8701 2123.1056,-151.8701"/>
</g>
<!-- ProductQuantityComponent -->
<g id="node18" class="node">
<title>ProductQuantityComponent</title>
<polygon fill="#ffffb3" stroke="#000000" points="3108.8738,-122 2935.1262,-122 2935.1262,-86 3108.8738,-86 3108.8738,-122"/>
<text text-anchor="middle" x="3022" y="-99.8" font-family="Times,serif" font-size="14.00" fill="#000000">ProductQuantityComponent</text>
</g>
<!-- ProductQuantityComponent&#45;&gt;SharedModule -->
<g id="edge19" class="edge">
<title>ProductQuantityComponent&#45;&gt;SharedModule</title>
<path fill="none" stroke="#000000" d="M3022,-122.0449C3022,-129.749 3022,-137 3022,-137 3022,-137 2118.4037,-137 2118.4037,-137 2118.4037,-137 2118.4037,-151.5146 2118.4037,-151.5146"/>
<polygon fill="#000000" stroke="#000000" points="2114.9038,-151.5145 2118.4037,-161.5146 2121.9038,-151.5146 2114.9038,-151.5145"/>
</g>
<!-- AuthService -->
<g id="node21" class="node">
<title>AuthService</title>
<ellipse fill="#fdb462" stroke="#000000" cx="1966" cy="-104" rx="59.1083" ry="18"/>
<text text-anchor="middle" x="1966" y="-99.8" font-family="Times,serif" font-size="14.00" fill="#000000">AuthService</text>
</g>
<!-- AuthService&#45;&gt;SharedModule -->
<g id="edge22" class="edge">
<title>AuthService&#45;&gt;SharedModule</title>
<path fill="none" stroke="#000000" d="M2018.9289,-112.1333C2018.9289,-131.7393 2018.9289,-180 2018.9289,-180 2018.9289,-180 2042.7171,-180 2042.7171,-180"/>
<polygon fill="#000000" stroke="#000000" points="2042.7171,-183.5001 2052.7171,-180 2042.7171,-176.5001 2042.7171,-183.5001"/>
</g>
<!-- BrandService -->
<g id="node22" class="node">
<title>BrandService</title>
<ellipse fill="#fdb462" stroke="#000000" cx="1825" cy="-104" rx="63.6813" ry="18"/>
<text text-anchor="middle" x="1825" y="-99.8" font-family="Times,serif" font-size="14.00" fill="#000000">BrandService</text>
</g>
<!-- BrandService&#45;&gt;SharedModule -->
<g id="edge23" class="edge">
<title>BrandService&#45;&gt;SharedModule</title>
<path fill="none" stroke="#000000" d="M1871.0183,-116.6563C1871.0183,-128.375 1871.0183,-144 1871.0183,-144 1871.0183,-144 2093.7982,-144 2093.7982,-144 2093.7982,-144 2093.7982,-151.5782 2093.7982,-151.5782"/>
<polygon fill="#000000" stroke="#000000" points="2090.2982,-151.5781 2093.7982,-161.5782 2097.2982,-151.5782 2090.2982,-151.5781"/>
</g>
<!-- CategoryService -->
<g id="node23" class="node">
<title>CategoryService</title>
<ellipse fill="#fdb462" stroke="#000000" cx="1668" cy="-104" rx="75.279" ry="18"/>
<text text-anchor="middle" x="1668" y="-99.8" font-family="Times,serif" font-size="14.00" fill="#000000">CategoryService</text>
</g>
<!-- CategoryService&#45;&gt;SharedModule -->
<g id="edge24" class="edge">
<title>CategoryService&#45;&gt;SharedModule</title>
<path fill="none" stroke="#000000" d="M1682.808,-121.8965C1682.808,-134.0781 1682.808,-148 1682.808,-148 1682.808,-148 2085.5963,-148 2085.5963,-148 2085.5963,-148 2085.5963,-151.7566 2085.5963,-151.7566"/>
<polygon fill="#000000" stroke="#000000" points="2082.0964,-151.7566 2085.5963,-161.7566 2089.0964,-151.7566 2082.0964,-151.7566"/>
</g>
<!-- OrderDescriptionService -->
<g id="node24" class="node">
<title>OrderDescriptionService</title>
<ellipse fill="#fdb462" stroke="#000000" cx="1467" cy="-104" rx="107.6192" ry="18"/>
<text text-anchor="middle" x="1467" y="-99.8" font-family="Times,serif" font-size="14.00" fill="#000000">OrderDescriptionService</text>
</g>
<!-- OrderDescriptionService&#45;&gt;SharedModule -->
<g id="edge25" class="edge">
<title>OrderDescriptionService&#45;&gt;SharedModule</title>
<path fill="none" stroke="#000000" d="M1520.256,-119.717C1520.256,-133.7158 1520.256,-152 1520.256,-152 1520.256,-152 2077.3944,-152 2077.3944,-152 2077.3944,-152 2077.3944,-152.9793 2077.3944,-152.9793"/>
<polygon fill="#000000" stroke="#000000" points="2073.8946,-151.793 2077.3944,-161.793 2080.8946,-151.7931 2073.8946,-151.793"/>
</g>
<!-- OrderService -->
<g id="node25" class="node">
<title>OrderService</title>
<ellipse fill="#fdb462" stroke="#000000" cx="1279" cy="-104" rx="62.516" ry="18"/>
<text text-anchor="middle" x="1279" y="-99.8" font-family="Times,serif" font-size="14.00" fill="#000000">OrderService</text>
</g>
<!-- OrderService&#45;&gt;SharedModule -->
<g id="edge26" class="edge">
<title>OrderService&#45;&gt;SharedModule</title>
<path fill="none" stroke="#000000" d="M1325.538,-116.0863C1325.538,-131.1677 1325.538,-155 1325.538,-155 1325.538,-155 2069.1926,-155 2069.1926,-155 2069.1926,-155 2069.1926,-155.6831 2069.1926,-155.6831"/>
<polygon fill="#000000" stroke="#000000" points="2065.6928,-151.8313 2069.1926,-161.8314 2072.6928,-151.8314 2065.6928,-151.8313"/>
</g>
<!-- ProductService -->
<g id="node26" class="node">
<title>ProductService</title>
<ellipse fill="#fdb462" stroke="#000000" cx="1128" cy="-104" rx="70.0616" ry="18"/>
<text text-anchor="middle" x="1128" y="-99.8" font-family="Times,serif" font-size="14.00" fill="#000000">ProductService</text>
</g>
<!-- ProductService&#45;&gt;SharedModule -->
<g id="edge27" class="edge">
<title>ProductService&#45;&gt;SharedModule</title>
<path fill="none" stroke="#000000" d="M1165.4428,-119.3206C1165.4428,-135.5946 1165.4428,-159 1165.4428,-159 1165.4428,-159 2060.9908,-159 2060.9908,-159 2060.9908,-159 2060.9908,-159.292 2060.9908,-159.292"/>
<polygon fill="#000000" stroke="#000000" points="2057.4911,-151.9198 2060.9908,-161.92 2064.4911,-151.9201 2057.4911,-151.9198"/>
</g>
<!-- ShoppingCartService -->
<g id="node27" class="node">
<title>ShoppingCartService</title>
<ellipse fill="#fdb462" stroke="#000000" cx="2272" cy="-104" rx="93.7804" ry="18"/>
<text text-anchor="middle" x="2272" y="-99.8" font-family="Times,serif" font-size="14.00" fill="#000000">ShoppingCartService</text>
</g>
<!-- ShoppingCartService&#45;&gt;SharedModule -->
<g id="edge28" class="edge">
<title>ShoppingCartService&#45;&gt;SharedModule</title>
<path fill="none" stroke="#000000" d="M2178.1782,-104C2171.7815,-104 2167.8069,-104 2167.8069,-104 2167.8069,-104 2167.8069,-180 2167.8069,-180 2167.8069,-180 2161.54,-180 2161.54,-180"/>
<polygon fill="#000000" stroke="#000000" points="2161.54,-176.5001 2151.54,-180 2161.54,-183.5001 2161.54,-176.5001"/>
</g>
<!-- UserService -->
<g id="node28" class="node">
<title>UserService</title>
<ellipse fill="#fdb462" stroke="#000000" cx="2102" cy="-104" rx="58.4415" ry="18"/>
<text text-anchor="middle" x="2102" y="-99.8" font-family="Times,serif" font-size="14.00" fill="#000000">UserService</text>
</g>
<!-- UserService&#45;&gt;SharedModule -->
<g id="edge29" class="edge">
<title>UserService&#45;&gt;SharedModule</title>
<path fill="none" stroke="#000000" d="M2102,-122.0109C2102,-122.0109 2102,-151.855 2102,-151.855"/>
<polygon fill="#000000" stroke="#000000" points="2098.5001,-151.8549 2102,-161.855 2105.5001,-151.855 2098.5001,-151.8549"/>
</g>
<!-- CheckOutComponent -->
<g id="node29" class="node">
<title>CheckOutComponent</title>
<polygon fill="#ffffb3" stroke="#000000" points="1604.0954,-198 1465.9046,-198 1465.9046,-162 1604.0954,-162 1604.0954,-198"/>
<text text-anchor="middle" x="1535" y="-175.8" font-family="Times,serif" font-size="14.00" fill="#000000">CheckOutComponent</text>
</g>
<!-- CheckOutComponent&#45;&gt;ShoppingModule -->
<g id="edge30" class="edge">
<title>CheckOutComponent&#45;&gt;ShoppingModule</title>
<path fill="none" stroke="#000000" d="M1473.8359,-198.1025C1473.8359,-209.0859 1473.8359,-221 1473.8359,-221 1473.8359,-221 1323.5825,-221 1323.5825,-221 1323.5825,-221 1323.5825,-227.68 1323.5825,-227.68"/>
<polygon fill="#000000" stroke="#000000" points="1320.0826,-227.6799 1323.5825,-237.68 1327.0826,-227.68 1320.0826,-227.6799"/>
</g>
<!-- MyOrdersComponent -->
<g id="node30" class="node">
<title>MyOrdersComponent</title>
<polygon fill="#ffffb3" stroke="#000000" points="1448.3641,-198 1309.6359,-198 1309.6359,-162 1448.3641,-162 1448.3641,-198"/>
<text text-anchor="middle" x="1379" y="-175.8" font-family="Times,serif" font-size="14.00" fill="#000000">MyOrdersComponent</text>
</g>
<!-- MyOrdersComponent&#45;&gt;ShoppingModule -->
<g id="edge31" class="edge">
<title>MyOrdersComponent&#45;&gt;ShoppingModule</title>
<path fill="none" stroke="#000000" d="M1316.5752,-198.0109C1316.5752,-198.0109 1316.5752,-227.855 1316.5752,-227.855"/>
<polygon fill="#000000" stroke="#000000" points="1313.0753,-227.8549 1316.5752,-237.855 1320.0753,-227.855 1313.0753,-227.8549"/>
</g>
<!-- OrderSuccessComponent -->
<g id="node31" class="node">
<title>OrderSuccessComponent</title>
<polygon fill="#ffffb3" stroke="#000000" points="1291.2907,-198 1132.7093,-198 1132.7093,-162 1291.2907,-162 1291.2907,-198"/>
<text text-anchor="middle" x="1212" y="-175.8" font-family="Times,serif" font-size="14.00" fill="#000000">OrderSuccessComponent</text>
</g>
<!-- OrderSuccessComponent&#45;&gt;ShoppingModule -->
<g id="edge32" class="edge">
<title>OrderSuccessComponent&#45;&gt;ShoppingModule</title>
<path fill="none" stroke="#000000" d="M1280.5939,-198.0109C1280.5939,-198.0109 1280.5939,-227.855 1280.5939,-227.855"/>
<polygon fill="#000000" stroke="#000000" points="1277.094,-227.8549 1280.5939,-237.855 1284.094,-227.855 1277.094,-227.8549"/>
</g>
<!-- ProductFilterComponent -->
<g id="node32" class="node">
<title>ProductFilterComponent</title>
<polygon fill="#ffffb3" stroke="#000000" points="1114.7105,-198 959.2895,-198 959.2895,-162 1114.7105,-162 1114.7105,-198"/>
<text text-anchor="middle" x="1037" y="-175.8" font-family="Times,serif" font-size="14.00" fill="#000000">ProductFilterComponent</text>
</g>
<!-- ProductFilterComponent&#45;&gt;ShoppingModule -->
<g id="edge33" class="edge">
<title>ProductFilterComponent&#45;&gt;ShoppingModule</title>
<path fill="none" stroke="#000000" d="M1037,-198.1592C1037,-203.0433 1037,-207 1037,-207 1037,-207 1270.0425,-207 1270.0425,-207 1270.0425,-207 1270.0425,-227.7542 1270.0425,-227.7542"/>
<polygon fill="#000000" stroke="#000000" points="1266.5426,-227.7542 1270.0425,-237.7542 1273.5426,-227.7542 1266.5426,-227.7542"/>
</g>
<!-- ProductsComponent -->
<g id="node33" class="node">
<title>ProductsComponent</title>
<polygon fill="#ffffb3" stroke="#000000" points="941.3258,-198 810.6742,-198 810.6742,-162 941.3258,-162 941.3258,-198"/>
<text text-anchor="middle" x="876" y="-175.8" font-family="Times,serif" font-size="14.00" fill="#000000">ProductsComponent</text>
</g>
<!-- ProductsComponent&#45;&gt;ShoppingModule -->
<g id="edge34" class="edge">
<title>ProductsComponent&#45;&gt;ShoppingModule</title>
<path fill="none" stroke="#000000" d="M876,-198.2434C876,-205.4297 876,-212 876,-212 876,-212 1259.4912,-212 1259.4912,-212 1259.4912,-212 1259.4912,-227.8495 1259.4912,-227.8495"/>
<polygon fill="#000000" stroke="#000000" points="1255.9913,-227.8494 1259.4912,-237.8495 1262.9913,-227.8495 1255.9913,-227.8494"/>
</g>
<!-- ShippingFormComponent -->
<g id="node34" class="node">
<title>ShippingFormComponent</title>
<polygon fill="#ffffb3" stroke="#000000" points="793.2302,-198 630.7698,-198 630.7698,-162 793.2302,-162 793.2302,-198"/>
<text text-anchor="middle" x="712" y="-175.8" font-family="Times,serif" font-size="14.00" fill="#000000">ShippingFormComponent</text>
</g>
<!-- ShippingFormComponent&#45;&gt;ShoppingModule -->
<g id="edge35" class="edge">
<title>ShippingFormComponent&#45;&gt;ShoppingModule</title>
<path fill="none" stroke="#000000" d="M712,-198.4218C712,-207.2791 712,-216 712,-216 712,-216 1248.9398,-216 1248.9398,-216 1248.9398,-216 1248.9398,-227.8726 1248.9398,-227.8726"/>
<polygon fill="#000000" stroke="#000000" points="1245.4399,-227.8725 1248.9398,-237.8726 1252.4399,-227.8726 1245.4399,-227.8725"/>
</g>
<!-- ShoppingCartComponent -->
<g id="node35" class="node">
<title>ShoppingCartComponent</title>
<polygon fill="#ffffb3" stroke="#000000" points="2012.608,-198 1853.392,-198 1853.392,-162 2012.608,-162 2012.608,-198"/>
<text text-anchor="middle" x="1933" y="-175.8" font-family="Times,serif" font-size="14.00" fill="#000000">ShoppingCartComponent</text>
</g>
<!-- ShoppingCartComponent&#45;&gt;ShoppingModule -->
<g id="edge36" class="edge">
<title>ShoppingCartComponent&#45;&gt;ShoppingModule</title>
<path fill="none" stroke="#000000" d="M1933,-198.0511C1933,-212.373 1933,-230 1933,-230 1933,-230 1337.597,-230 1337.597,-230 1337.597,-230 1337.597,-230.7942 1337.597,-230.7942"/>
<polygon fill="#000000" stroke="#000000" points="1334.0971,-227.9421 1337.597,-237.9421 1341.0971,-227.9422 1334.0971,-227.9421"/>
</g>
<!-- ShoppingCartSummaryComponent -->
<g id="node36" class="node">
<title>ShoppingCartSummaryComponent</title>
<polygon fill="#ffffb3" stroke="#000000" points="1835.5475,-198 1622.4525,-198 1622.4525,-162 1835.5475,-162 1835.5475,-198"/>
<text text-anchor="middle" x="1729" y="-175.8" font-family="Times,serif" font-size="14.00" fill="#000000">ShoppingCartSummaryComponent</text>
</g>
<!-- ShoppingCartSummaryComponent&#45;&gt;ShoppingModule -->
<g id="edge37" class="edge">
<title>ShoppingCartSummaryComponent&#45;&gt;ShoppingModule</title>
<path fill="none" stroke="#000000" d="M1729,-198.0439C1729,-210.5633 1729,-225 1729,-225 1729,-225 1330.5898,-225 1330.5898,-225 1330.5898,-225 1330.5898,-227.9672 1330.5898,-227.9672"/>
<polygon fill="#000000" stroke="#000000" points="1327.0898,-227.9671 1330.5898,-237.9672 1334.0898,-227.9672 1327.0898,-227.9671"/>
</g>
</g>
</svg>
